<svg preserveAspectRatio="none" width="100%" height="100%" overflow="visible" style="display: block;" viewBox="0 0 17.87 17.88" fill="none" xmlns="http://www.w3.org/2000/svg">
<g id="Group">
<path id="Vector" d="M17.87 17.17L12.28 11.58C13.35 10.35 14 8.75 14 7C14 3.13 10.87 0 7 0C3.13 0 0 3.13 0 7C0 10.87 3.13 14 7 14C8.75 14 10.35 13.35 11.58 12.29L17.17 17.88L17.87 17.17ZM7 13C3.69 13 1 10.31 1 7C1 3.69 3.69 1 7 1C10.31 1 13 3.69 13 7C13 10.31 10.31 13 7 13Z" fill="var(--fill-0, black)"/>
</g>
</svg>
