<svg preserveAspectRatio="none" width="100%" height="100%" overflow="visible" style="display: block;" viewBox="0 0 27.1787 24.8375" fill="none" xmlns="http://www.w3.org/2000/svg">
<g id="Group 3">
<path id="Union" fill-rule="evenodd" clip-rule="evenodd" d="M5.39734 8.00298C3.34752 9.15173 2.6452 11.6959 3.82866 13.6856C4.49045 14.7983 5.51737 15.5492 6.61863 15.8132C5.10141 17.0934 4.68008 19.2771 5.72287 21.0303C6.90634 23.02 9.52745 23.7017 11.5773 22.553L21.7814 16.8345C23.8312 15.6857 24.5335 13.1415 23.35 11.1518C22.6971 10.0541 21.6066 9.35445 20.4158 9.14072C22.0498 7.87987 22.531 5.61468 21.4558 3.80713C20.2724 1.81743 17.6513 1.13571 15.6014 2.28446L5.39734 8.00298ZM17.4983 9.62765L19.3514 8.58912C20.8888 7.72756 21.4155 5.8194 20.5279 4.32713C19.6403 2.83485 17.6745 2.32356 16.1371 3.18513L5.93306 8.90365C4.39569 9.76521 3.86895 11.6734 4.75655 13.1656C5.64415 14.6579 7.29158 15.3476 8.6834 14.5676L9.21912 15.4683L7.82727 16.2483C6.2899 17.1099 5.76316 19.018 6.65076 20.5103C7.53836 22.0026 9.50419 22.5139 11.0416 21.6523L21.2456 15.9338C22.783 15.0722 23.3098 13.1641 22.4222 11.6718C21.5346 10.1795 19.5687 9.66824 18.0314 10.5298L17.4956 9.62914C17.4965 9.62864 17.4974 9.62814 17.4983 9.62765Z" fill="var(--fill-0, black)"/>
<path id="Polygon 1" d="M11.5367 10.7994C11.5367 10.4217 11.9523 10.1888 12.2893 10.3777L16.575 12.7794C16.9157 12.9704 16.9205 13.4484 16.5835 13.6373L12.2978 16.039C11.9608 16.2279 11.5367 15.9849 11.5367 15.6029L11.5367 10.7994Z" fill="var(--fill-0, black)"/>
</g>
</svg>
