<svg preserveAspectRatio="none" width="100%" height="100%" overflow="visible" style="display: block;" viewBox="0 0 13.3333 13.3333" fill="none" xmlns="http://www.w3.org/2000/svg">
<g id="Group">
<path id="Vector" d="M5.2 5.2L2.64667 10.6867L8.13333 8.13333L10.6867 2.64667L5.2 5.2ZM7.38667 7.18C7.24667 7.37333 7.04667 7.5 6.81333 7.54C6.76667 7.54667 6.71333 7.55333 6.66667 7.55333C6.48 7.55333 6.30667 7.5 6.15333 7.38667C5.96 7.24667 5.83333 7.04667 5.79333 6.81333C5.75333 6.58 5.80667 6.34 5.94667 6.15333C6.08667 5.96 6.28667 5.83333 6.52 5.79333C6.75333 5.75333 6.98667 5.80667 7.18 5.94667C7.37334 6.08667 7.5 6.28667 7.54 6.52C7.58 6.75333 7.52667 6.98667 7.38667 7.18ZM6.66667 0.666667C9.97334 0.666667 12.6667 3.36 12.6667 6.66667C12.6667 9.97333 9.97334 12.6667 6.66667 12.6667C3.36 12.6667 0.666667 9.97333 0.666667 6.66667C0.666667 3.36 3.36 0.666667 6.66667 0.666667ZM6.66667 0C2.98667 0 0 2.98667 0 6.66667C0 10.3467 2.98667 13.3333 6.66667 13.3333C10.3467 13.3333 13.3333 10.3467 13.3333 6.66667C13.3333 2.98667 10.3467 0 6.66667 0Z" fill="var(--fill-0, #030303)"/>
</g>
</svg>
