<svg preserveAspectRatio="none" width="100%" height="100%" overflow="visible" style="display: block;" viewBox="0 0 27.1795 24.8382" fill="none" xmlns="http://www.w3.org/2000/svg">
<g id="Group 3">
<path id="Union" d="M15.6024 2.28503C17.6521 1.13653 20.2728 1.8178 21.4563 3.80711C22.5317 5.61513 22.0495 7.88064 20.4145 9.1413C21.606 9.35464 22.6974 10.0543 23.3506 11.1527C24.5338 13.1422 23.8318 15.686 21.7824 16.8348L11.5784 22.5535C9.52858 23.7023 6.90663 23.0207 5.72314 21.0311C4.68018 19.2776 5.10232 17.0934 6.62013 15.8132C5.51866 15.5494 4.49123 14.7991 3.8293 13.6864C2.64583 11.6967 3.3481 9.15168 5.39792 8.00293L15.6024 2.28503ZM5.93369 8.90356C4.39632 9.76513 3.86953 11.6742 4.75713 13.1665C5.64477 14.6586 7.29269 15.3483 8.68443 14.5684L9.2202 15.469L7.82803 16.2491C6.29068 17.1107 5.76423 19.0184 6.65182 20.5107C7.53946 22.0029 9.5053 22.5144 11.0426 21.6529L21.2466 15.9341C22.7836 15.0725 23.3102 13.1647 22.4228 11.6726C21.5352 10.1803 19.5694 9.66879 18.032 10.5304L17.4963 9.62972L17.4988 9.62826L19.3519 8.58993C20.8892 7.72844 21.4163 5.82007 20.529 4.32786C19.6414 2.83567 17.6755 2.32432 16.1382 3.18566L5.93369 8.90356Z" fill="var(--fill-0, white)"/>
<path id="Polygon 1" d="M11.5373 10.7999C11.5373 10.4222 11.9529 10.1893 12.2899 10.3781L16.5756 12.7799C16.9164 12.9708 16.9211 13.4489 16.5841 13.6378L12.2984 16.0395C11.9614 16.2284 11.5373 15.9854 11.5373 15.6034L11.5373 10.7999Z" fill="var(--fill-0, white)"/>
</g>
</svg>
