<svg preserveAspectRatio="none" width="100%" height="100%" overflow="visible" style="display: block;" viewBox="0 0 26.1719 26.1836" fill="none" xmlns="http://www.w3.org/2000/svg">
<g id="Group">
<path id="Vector" d="M10.417 0.25C16.0374 0.250176 20.583 4.79653 20.583 10.417C20.5829 12.8757 19.6967 15.1278 18.2334 16.8887L25.9922 24.6475L25.9941 25L25.002 26.0059L24.6475 26.0068L16.8887 18.248C15.1282 19.6979 12.8755 20.5829 10.417 20.583C4.79653 20.583 0.250175 16.0374 0.25 10.417C0.25 4.79642 4.79642 0.25 10.417 0.25ZM10.417 2.16699C5.8659 2.16699 2.16699 5.8659 2.16699 10.417C2.16717 14.9679 5.86601 18.667 10.417 18.667C14.9678 18.6668 18.6668 14.9678 18.667 10.417C18.667 5.86601 14.9679 2.16717 10.417 2.16699Z" fill="var(--fill-0, white)" stroke="var(--stroke-0, white)" stroke-width="0.5" stroke-linejoin="bevel"/>
</g>
</svg>
